<svg width="1200" height="630" viewBox="0 0 1200 630" xmlns="http://www.w3.org/2000/svg">
  <defs>
    <linearGradient id="bg" x1="0" y1="0" x2="1200" y2="630" gradientUnits="userSpaceOnUse">
      <stop offset="0%" stop-color="#040f17"/>
      <stop offset="100%" stop-color="#071e2b"/>
    </linearGradient>
    <linearGradient id="green-line" x1="0" y1="0" x2="1200" y2="0" gradientUnits="userSpaceOnUse">
      <stop offset="0%" stop-color="#040f17"/>
      <stop offset="30%" stop-color="#00ffa3" stop-opacity="0.7"/>
      <stop offset="70%" stop-color="#00aaff" stop-opacity="0.4"/>
      <stop offset="100%" stop-color="#040f17"/>
    </linearGradient>
    <linearGradient id="pipe-edge-1" x1="0" y1="0" x2="1" y2="0">
      <stop offset="0%" stop-color="#00ffa3"/>
      <stop offset="100%" stop-color="#00aaff"/>
    </linearGradient>
    <linearGradient id="pipe-edge-2" x1="0" y1="0" x2="1" y2="0">
      <stop offset="0%" stop-color="#00aaff"/>
      <stop offset="100%" stop-color="#ff8c42"/>
    </linearGradient>
    <linearGradient id="pipe-edge-3" x1="0" y1="0" x2="1" y2="0">
      <stop offset="0%" stop-color="#ff8c42"/>
      <stop offset="100%" stop-color="#ffaa44"/>
    </linearGradient>
    <linearGradient id="pipe-edge-4" x1="0" y1="0" x2="1" y2="0">
      <stop offset="0%" stop-color="#ffaa44"/>
      <stop offset="100%" stop-color="#29b5e8"/>
    </linearGradient>
    <radialGradient id="glow" cx="50%" cy="0%" r="60%">
      <stop offset="0%" stop-color="#00ffa3" stop-opacity="0.06"/>
      <stop offset="100%" stop-color="#040f17" stop-opacity="0"/>
    </radialGradient>
    <pattern id="grid" width="60" height="60" patternUnits="userSpaceOnUse">
      <path d="M 60 0 L 0 0 0 60" fill="none" stroke="#00ffa3" stroke-width="0.6" opacity="0.06"/>
    </pattern>
  </defs>

  <!-- Background -->
  <rect width="1200" height="630" fill="url(#bg)"/>
  <rect width="1200" height="630" fill="url(#grid)"/>
  <rect width="1200" height="630" fill="url(#glow)"/>

  <!-- Top accent line -->
  <rect x="0" y="0" width="1200" height="1.5" fill="url(#green-line)"/>

  <!-- Left accent bar -->
  <rect x="72" y="60" width="2" height="510" fill="#00ffa3" opacity="0.15" rx="1"/>

  <!-- Status badge -->
  <rect x="100" y="80" width="220" height="28" rx="14" fill="#00ffa320" stroke="#00ffa340" stroke-width="1"/>
  <circle cx="120" cy="94" r="4" fill="#00ffa3"/>
  <text x="132" y="99" font-family="JetBrains Mono, monospace" font-size="11" fill="#00ffa3" letter-spacing="2">OPEN TO WORK</text>

  <!-- Name -->
  <text x="100" y="200" font-family="Georgia, serif" font-size="88" fill="#F6FCFF" font-weight="600" letter-spacing="-2">Samik Sengupta</text>

  <!-- Role line -->
  <text x="102" y="244" font-family="JetBrains Mono, monospace" font-size="18" fill="#E0EBF060" letter-spacing="1">Data Engineer  ·  Bangalore  ·  12–14 LPA</text>

  <!-- Divider -->
  <rect x="100" y="276" width="400" height="1" fill="#E0EBF015"/>

  <!-- Description -->
  <text x="100" y="312" font-family="Georgia, serif" font-size="20" fill="#E0EBF080" font-style="italic">Batch &amp; real-time pipelines built to run in production.</text>

  <!-- Pipeline nodes row -->
  <!-- Node 1: Source -->
  <rect x="100" y="370" width="120" height="56" rx="12" fill="#00ffa312" stroke="#00ffa330" stroke-width="1.5"/>
  <rect x="100" y="370" width="120" height="3" rx="1.5" fill="#00ffa3"/>
  <text x="160" y="396" font-family="JetBrains Mono, monospace" font-size="11" fill="#00ffa3" text-anchor="middle">Alpha Vantage</text>
  <text x="160" y="413" font-family="JetBrains Mono, monospace" font-size="9" fill="#00ffa380" text-anchor="middle">Source API</text>

  <!-- Edge 1 -->
  <rect x="220" y="396" width="50" height="1" fill="url(#pipe-edge-1)"/>
  <polygon points="270,393 278,397 270,401" fill="#00aaff80"/>

  <!-- Node 2: Kafka -->
  <rect x="278" y="370" width="110" height="56" rx="12" fill="#00aaff12" stroke="#00aaff30" stroke-width="1.5"/>
  <rect x="278" y="370" width="110" height="3" rx="1.5" fill="#00aaff"/>
  <text x="333" y="396" font-family="JetBrains Mono, monospace" font-size="11" fill="#00aaff" text-anchor="middle">Kafka</text>
  <text x="333" y="413" font-family="JetBrains Mono, monospace" font-size="9" fill="#00aaff80" text-anchor="middle">Message Bus</text>

  <!-- Edge 2 -->
  <rect x="388" y="396" width="50" height="1" fill="url(#pipe-edge-2)"/>
  <polygon points="438,393 446,397 438,401" fill="#ff8c4280"/>

  <!-- Node 3: Spark -->
  <rect x="446" y="370" width="110" height="56" rx="12" fill="#ff8c4212" stroke="#ff8c4230" stroke-width="1.5"/>
  <rect x="446" y="370" width="110" height="3" rx="1.5" fill="#ff8c42"/>
  <text x="501" y="396" font-family="JetBrains Mono, monospace" font-size="11" fill="#ff8c42" text-anchor="middle">PySpark</text>
  <text x="501" y="413" font-family="JetBrains Mono, monospace" font-size="9" fill="#ff8c4280" text-anchor="middle">Streaming</text>

  <!-- Edge 3 -->
  <rect x="556" y="396" width="50" height="1" fill="url(#pipe-edge-3)"/>
  <polygon points="606,393 614,397 606,401" fill="#ffaa4480"/>

  <!-- Node 4: dbt -->
  <rect x="614" y="370" width="90" height="56" rx="12" fill="#ffaa4412" stroke="#ffaa4430" stroke-width="1.5"/>
  <rect x="614" y="370" width="90" height="3" rx="1.5" fill="#ffaa44"/>
  <text x="659" y="396" font-family="JetBrains Mono, monospace" font-size="11" fill="#ffaa44" text-anchor="middle">dbt</text>
  <text x="659" y="413" font-family="JetBrains Mono, monospace" font-size="9" fill="#ffaa4480" text-anchor="middle">Transform</text>

  <!-- Edge 4 -->
  <rect x="704" y="396" width="50" height="1" fill="url(#pipe-edge-4)"/>
  <polygon points="754,393 762,397 754,401" fill="#29b5e880"/>

  <!-- Node 5: Snowflake -->
  <rect x="762" y="370" width="120" height="56" rx="12" fill="#29b5e812" stroke="#29b5e830" stroke-width="1.5"/>
  <rect x="762" y="370" width="120" height="3" rx="1.5" fill="#29b5e8"/>
  <text x="822" y="396" font-family="JetBrains Mono, monospace" font-size="11" fill="#29b5e8" text-anchor="middle">Snowflake</text>
  <text x="822" y="413" font-family="JetBrains Mono, monospace" font-size="9" fill="#29b5e880" text-anchor="middle">Warehouse</text>

  <!-- Tech chips -->
  <rect x="100" y="468" width="68" height="22" rx="11" fill="#00ffa310" stroke="#00ffa325" stroke-width="1"/>
  <text x="134" y="483" font-family="JetBrains Mono, monospace" font-size="9" fill="#00ffa3" text-anchor="middle">Airflow</text>

  <rect x="178" y="468" width="62" height="22" rx="11" fill="#00aaff10" stroke="#00aaff25" stroke-width="1"/>
  <text x="209" y="483" font-family="JetBrains Mono, monospace" font-size="9" fill="#00aaff" text-anchor="middle">Docker</text>

  <rect x="250" y="468" width="76" height="22" rx="11" fill="#ff8c4210" stroke="#ff8c4225" stroke-width="1"/>
  <text x="288" y="483" font-family="JetBrains Mono, monospace" font-size="9" fill="#ff8c42" text-anchor="middle">PostgreSQL</text>

  <rect x="336" y="468" width="56" height="22" rx="11" fill="#ffaa4410" stroke="#ffaa4425" stroke-width="1"/>
  <text x="364" y="483" font-family="JetBrains Mono, monospace" font-size="9" fill="#ffaa44" text-anchor="middle">AWS S3</text>

  <rect x="402" y="468" width="60" height="22" rx="11" fill="#a78bfa10" stroke="#a78bfa25" stroke-width="1"/>
  <text x="432" y="483" font-family="JetBrains Mono, monospace" font-size="9" fill="#a78bfa" text-anchor="middle">Python</text>

  <!-- Right side: decorative large SS -->
  <text x="960" y="420" font-family="Georgia, serif" font-size="260" fill="#F6FCFF" opacity="0.025" font-weight="600">SS</text>

  <!-- URL -->
  <text x="100" y="576" font-family="JetBrains Mono, monospace" font-size="12" fill="#E0EBF025">samiksengupta.dev</text>

  <!-- GitHub / LinkedIn -->
  <text x="1100" y="576" font-family="JetBrains Mono, monospace" font-size="11" fill="#E0EBF020" text-anchor="end">github.com/Samik7hos0</text>
</svg>
